<svg aria-hidden="true" style="position: absolute; width: 0; height: 0; overflow: hidden;" version="1.1" xmlns="http://www.w3.org/2000/svg" xmlns:xlink="http://www.w3.org/1999/xlink">
<defs>
<symbol id="icon-gerb" viewBox="0 0 19 32">
<path fill="#ffd500" style="fill: var(--color1, #ffd500)" d="M9.632 0.080c-0.742 0.842-1.194 1.944-1.194 3.154 0.044 2.656 0.369 5.309 0.398 7.96 0.059 2.476-0.683 4.8-1.586 7.069-0.301 0.626-0.626 1.239-0.951 1.854l-0.955-0.193c-0.862-0.172-1.423-1.010-1.25-1.872 0.15-0.754 0.814-1.282 1.555-1.282l0.349 0.037-0.778-6.496c-0.254-2.89-1.746-5.429-3.94-7.077-0.377-0.283-0.778-0.543-1.194-0.771v23.061h5.324c0.398 2.157 1.587 4.044 3.259 5.333 0.397 0.274 0.731 0.635 0.97 1.057 0.239-0.422 0.572-0.783 0.97-1.057 1.672-1.293 2.861-3.175 3.259-5.333h5.324v-23.061c-0.416 0.228-0.817 0.488-1.194 0.771-2.197 1.65-3.686 4.187-3.94 7.077l-0.778 6.496 0.349-0.037c0.74 0.003 1.404 0.527 1.555 1.282 0.172 0.862-0.388 1.7-1.25 1.872l-0.955 0.193c-0.326-0.614-0.651-1.227-0.951-1.854-0.903-2.267-1.645-4.591-1.586-7.069 0.029-2.659 0.354-5.309 0.398-7.96 0-1.21-0.452-2.308-1.194-3.154zM1.672 5.787c1.030 1.209 1.722 2.714 1.926 4.373l0.637 5.357c-0.816 0.406-1.433 1.151-1.667 2.053h-0.902v-11.781zM17.592 5.787v11.781h-0.902c-0.232-0.901-0.851-1.646-1.667-2.053l0.637-5.357c0.206-1.657 0.898-3.163 1.926-4.373zM9.632 16.557c0.427 1.399 1.016 2.73 1.747 3.963-0.696 0.211-1.301 0.622-1.747 1.175-0.447-0.553-1.052-0.963-1.747-1.176 0.732-1.235 1.32-2.563 1.747-3.962zM1.672 19.163h0.902c0.284 1.099 1.142 1.967 2.229 2.27l0.765 0.174c-0.205 0.742-0.317 1.52-0.317 2.332h-3.582v-4.776zM16.693 19.163h0.902v4.776h-3.582c0-0.807-0.112-1.59-0.317-2.332l0.765-0.174c1.091-0.303 1.948-1.172 2.229-2.27zM7.124 21.973c0.966 0.136 1.71 0.963 1.71 1.965h-1.99c0-0.682 0.101-1.34 0.28-1.965zM12.137 21.973c0.179 0.625 0.28 1.282 0.28 1.965h-1.99c0-1.004 0.744-1.829 1.71-1.965zM7.026 25.532h1.809v3.351c-0.876-0.919-1.512-2.070-1.809-3.351zM10.428 25.532h1.809c-0.293 1.282-0.931 2.433-1.809 3.351v-3.351z"></path>
</symbol>
</defs>
</svg>
